<?xml version="1.0" standalone="no"?>
<!DOCTYPE svg PUBLIC "-//W3C//DTD SVG 20010904//EN"
 "http://www.w3.org/TR/2001/REC-SVG-20010904/DTD/svg10.dtd">
<svg version="1.0" xmlns="http://www.w3.org/2000/svg"
 width="1211.000000pt" height="1212.000000pt" viewBox="0 0 1211.000000 1212.000000"
 preserveAspectRatio="xMidYMid meet">
<metadata>
Created by potrace 1.16, written by Peter Selinger 2001-2019
</metadata>
<g transform="translate(0.000000,1212.000000) scale(0.100000,-0.100000)"
fill="#000000" stroke="none">
<path d="M3587 12113 c1355 -2 3571 -2 4925 0 1355 1 247 2 -2462 2 -2709 0
-3817 -1 -2463 -2z"/>
<path d="M1055 11933 c-175 -24 -332 -91 -490 -209 -212 -158 -353 -413 -386
-698 -7 -62 -9 -1661 -7 -5031 l3 -4940 23 -85 c53 -200 135 -348 270 -485
135 -136 280 -220 472 -274 l95 -26 5015 0 5015 0 87 22 c389 100 681 398 759
776 18 90 19 225 19 5073 0 4468 -2 4990 -16 5064 -65 347 -310 634 -647 760
-29 11 -94 29 -143 40 -88 19 -145 20 -5064 18 -2736 0 -4988 -3 -5005 -5z
m5460 -938 c249 -29 594 -105 823 -181 868 -289 1609 -855 2119 -1619 364
-547 589 -1177 659 -1850 23 -218 23 -608 1 -815 -81 -731 -329 -1388 -746
-1973 -195 -273 -389 -482 -686 -742 -63 -56 -314 -241 -405 -300 -814 -527
-1786 -749 -2741 -625 -1018 131 -1952 637 -2599 1409 -25 29 -50 59 -56 65
-23 24 -184 246 -241 331 -450 677 -694 1531 -669 2340 26 874 307 1681 821
2361 137 181 239 296 417 469 674 658 1526 1049 2482 1140 185 18 631 13 821
-10z m693 -8559 c95 -48 147 -136 167 -282 8 -61 12 -59 -131 -69 l-91 -7 -13
50 c-16 70 -48 102 -99 102 -49 0 -81 -35 -81 -87 0 -49 30 -73 137 -111 208
-75 292 -174 308 -363 16 -181 -60 -361 -180 -426 -42 -23 -65 -28 -142 -31
-53 -3 -113 1 -139 7 -99 25 -165 96 -206 219 -23 71 -41 183 -31 193 4 4 58
11 119 15 l111 7 6 -44 c13 -97 63 -159 127 -159 52 0 100 58 100 120 0 57
-33 103 -92 129 -217 96 -278 143 -318 248 -31 81 -32 233 -2 316 38 105 115
176 213 197 72 15 182 4 237 -24z m2833 9 c53 -18 112 -72 140 -128 20 -39 48
-152 49 -194 0 -25 -14 -29 -142 -39 -71 -5 -88 -4 -88 7 0 34 -24 94 -45 115
-35 35 -96 33 -124 -2 -41 -52 -21 -112 48 -142 25 -12 79 -35 119 -51 186
-77 256 -181 256 -386 1 -188 -66 -325 -189 -386 -62 -30 -67 -31 -172 -27
-97 3 -114 7 -162 33 -36 20 -66 46 -88 78 -39 58 -80 181 -84 257 l-4 55 114
10 c78 7 114 7 116 0 2 -5 6 -28 10 -50 24 -144 152 -196 210 -85 19 38 19 83
-1 126 -12 26 -31 41 -80 64 -35 16 -94 44 -131 61 -79 38 -140 95 -173 164
-33 67 -41 227 -16 319 32 114 117 197 223 216 63 11 156 5 214 -15z m-7938
-402 c4 -439 7 -459 58 -514 22 -23 35 -29 71 -29 53 0 85 21 107 69 14 31 17
95 21 456 l5 420 118 3 118 3 -3 -458 c-4 -409 -6 -464 -22 -513 -39 -118
-100 -206 -169 -243 -37 -19 -57 -22 -162 -22 -184 0 -243 33 -315 176 -58
114 -62 153 -67 612 -3 230 -2 425 1 433 4 11 29 14 120 14 l114 0 5 -407z
m937 360 c12 -27 73 -169 137 -318 63 -148 119 -274 124 -279 5 -6 9 127 9
317 l0 327 110 0 110 0 0 -610 0 -610 -113 0 -113 0 -39 93 c-21 50 -50 119
-65 152 -15 33 -57 132 -95 220 -37 88 -71 164 -76 169 -5 6 -9 -125 -9 -312
l0 -322 -110 0 -110 0 0 610 0 610 110 0 109 0 21 -47z m938 -565 l2 -608
-123 0 c-122 0 -124 0 -121 23 1 12 3 287 3 610 l1 588 118 -3 117 -3 3 -607z
m389 565 c6 -27 44 -216 84 -420 41 -205 76 -373 79 -373 3 0 18 62 32 138 88
456 130 669 134 685 5 15 20 17 125 17 138 0 133 6 100 -115 -20 -74 -30 -117
-166 -705 -48 -206 -89 -381 -91 -387 -2 -10 -39 -13 -136 -13 l-133 0 -63
268 c-35 147 -100 414 -143 593 -43 180 -79 334 -79 343 0 14 16 16 123 16
l124 0 10 -47z m1333 -88 l0 -135 -200 0 -200 0 0 -95 0 -95 185 0 185 0 0
-125 0 -125 -185 0 -185 0 0 -115 0 -115 205 0 205 0 0 -140 0 -140 -325 0
-325 0 0 603 c0 332 3 607 7 610 3 4 147 7 320 7 l313 0 0 -135z m713 115 c54
-16 110 -71 138 -133 21 -46 24 -67 24 -187 0 -117 -3 -142 -22 -190 -26 -63
-63 -109 -112 -138 l-33 -20 25 -16 c39 -26 84 -123 152 -327 l63 -190 -141 3
-140 3 -67 200 c-73 219 -91 259 -119 275 -51 27 -51 29 -51 -235 l0 -245
-120 0 -120 0 0 611 0 611 243 -5 c141 -3 258 -10 280 -17z m1395 -592 l2
-608 -120 0 -120 0 0 603 c0 332 3 607 7 611 4 3 57 5 117 4 l111 -3 3 -607z
m860 455 l3 -153 -121 0 -120 0 0 -455 0 -455 -122 0 -123 0 0 452 0 453 -117
3 -118 3 0 154 0 155 358 -2 357 -3 3 -152z m577 0 c20 -87 48 -205 62 -263
13 -58 42 -177 63 -265 21 -88 48 -203 60 -255 12 -52 32 -137 45 -187 l23
-93 -128 0 -127 0 -19 98 -20 97 -132 3 c-102 2 -132 0 -133 -10 0 -7 -8 -51
-18 -98 l-17 -85 -126 -3 -125 -3 27 108 c15 59 39 162 54 228 30 127 93 396
126 530 11 44 31 132 46 195 41 178 22 160 172 160 l129 0 38 -157z"/>
<path d="M5807 10909 c-422 -27 -873 -130 -1250 -285 -526 -217 -949 -503
-1352 -915 -299 -306 -511 -603 -706 -990 -199 -397 -308 -745 -383 -1224 -49
-310 -49 -785 -1 -1115 127 -865 520 -1651 1130 -2255 359 -356 754 -627 1210
-830 397 -177 879 -295 1325 -325 799 -54 1575 127 2270 528 1042 600 1769
1674 1939 2862 66 458 52 944 -40 1390 -118 570 -360 1102 -714 1575 -194 258
-487 560 -710 731 -140 107 -208 156 -290 209 -599 389 -1248 602 -1965 645
-185 11 -277 11 -463 -1z m593 -154 c791 -72 1517 -376 2135 -894 141 -118
380 -363 497 -509 448 -561 716 -1176 818 -1873 93 -646 15 -1326 -225 -1939
-474 -1214 -1569 -2126 -2838 -2365 -651 -122 -1300 -83 -1917 117 -711 230
-1338 665 -1814 1259 -679 848 -964 1958 -780 3039 90 528 301 1052 602 1495
345 507 783 907 1326 1210 457 255 994 419 1526 464 155 13 504 11 670 -4z"/>
<path d="M5840 10714 c-159 -11 -299 -27 -425 -49 -993 -174 -1848 -711 -2442
-1535 -147 -203 -320 -516 -418 -754 -399 -972 -372 -2089 74 -3040 514 -1096
1522 -1882 2710 -2111 388 -74 860 -85 1261 -29 784 110 1536 485 2104 1047
152 151 187 189 282 307 551 680 844 1500 846 2370 1 272 -11 421 -52 659
-117 675 -393 1267 -836 1796 -621 740 -1487 1204 -2464 1321 -121 14 -528 26
-640 18z m410 -74 c648 -39 1239 -225 1765 -555 359 -225 700 -531 963 -866
704 -895 952 -2088 667 -3203 -131 -510 -361 -973 -690 -1386 -87 -109 -237
-276 -301 -335 -16 -15 -56 -52 -89 -84 -60 -57 -162 -144 -224 -191 -18 -14
-54 -41 -79 -61 -281 -217 -696 -430 -1067 -548 -357 -115 -667 -167 -1040
-178 -837 -23 -1651 235 -2320 736 -528 395 -953 941 -1205 1546 -137 327
-239 742 -270 1095 -13 149 -13 502 0 655 64 743 368 1476 849 2050 363 432
823 780 1341 1012 522 235 1136 348 1700 313z"/>
<path d="M5521 10370 c-59 -13 -140 -60 -174 -103 -49 -60 -47 -156 5 -222 32
-41 85 -62 227 -89 72 -14 144 -31 159 -38 36 -18 55 -58 42 -92 -28 -74 -224
-111 -292 -56 -21 17 -21 19 -6 42 16 24 16 26 -10 51 l-27 26 -58 -46 c-31
-26 -57 -52 -57 -58 0 -16 50 -80 82 -105 124 -96 396 -47 473 85 32 54 34
138 5 195 -34 66 -82 90 -257 127 -159 33 -193 48 -193 87 0 30 10 41 57 65
30 15 60 21 105 21 77 0 93 -9 84 -44 -5 -21 -1 -28 23 -41 17 -8 32 -15 35
-15 2 0 23 30 46 67 41 64 42 67 24 81 -71 55 -199 82 -293 62z"/>
<path d="M6373 10368 c-10 -13 -46 -74 -236 -408 -91 -159 -107 -184 -129
-192 -3 -2 -8 -16 -10 -32 -4 -34 7 -39 114 -50 l65 -7 7 32 c4 23 2 35 -9 43
-14 10 -10 23 32 99 l48 88 60 -6 c33 -3 81 -8 107 -12 l46 -5 32 -95 c29 -87
30 -96 16 -112 -9 -10 -16 -29 -16 -43 0 -30 10 -34 121 -44 l77 -7 7 32 c5
25 2 35 -13 49 -14 12 -50 116 -117 337 -53 176 -100 323 -103 326 -16 15 -89
20 -99 7z"/>
<path d="M7085 10210 c-4 -17 -2 -36 3 -43 7 -8 -21 -88 -93 -267 -80 -199
-106 -254 -119 -252 -18 3 -50 -57 -38 -70 4 -3 45 -21 91 -38 81 -31 85 -32
98 -14 15 21 17 46 4 60 -12 12 63 198 82 202 22 5 27 -8 77 -197 l45 -175 69
-28 c38 -15 70 -28 71 -28 2 0 8 14 16 31 11 28 10 33 -5 45 -11 8 -33 64 -57
146 -21 73 -39 134 -39 136 0 1 24 2 53 2 103 1 182 65 206 168 18 75 -15 153
-85 202 -39 26 -331 149 -356 150 -10 0 -19 -11 -23 -30z m269 -187 c60 -31
82 -69 66 -117 -17 -53 -42 -69 -97 -64 -58 6 -173 48 -173 64 0 6 9 31 19 55
11 24 26 61 34 81 l15 37 53 -20 c29 -11 66 -27 83 -36z"/>
<path d="M4204 9861 c-18 -11 -35 -24 -38 -30 -7 -10 7 -106 39 -286 8 -44 17
-96 19 -115 3 -19 15 -90 26 -158 16 -93 18 -127 10 -137 -9 -10 -7 -20 5 -39
10 -14 22 -26 27 -26 12 0 89 46 125 76 25 20 25 21 8 47 -9 15 -25 27 -34 27
-14 0 -21 18 -34 98 -15 88 -15 98 -1 107 9 6 50 31 91 57 l75 47 82 -53 c54
-35 81 -59 82 -72 1 -28 22 -64 37 -64 7 0 47 22 90 50 l78 50 -16 30 c-11 21
-23 30 -41 30 -17 0 -123 66 -306 190 -153 105 -282 190 -286 190 -4 0 -21 -9
-38 -19z"/>
<path d="M8075 9623 c-78 -43 -175 -95 -399 -215 -61 -32 -120 -58 -132 -58
-23 0 -62 -47 -47 -59 4 -4 33 -28 65 -54 31 -26 61 -47 67 -47 15 0 43 46 39
65 -2 12 21 30 83 63 l86 47 82 -65 c91 -73 88 -60 53 -194 -10 -40 -24 -72
-33 -74 -21 -7 -49 -33 -49 -47 0 -12 133 -125 147 -125 20 0 42 41 37 67 -3
18 22 127 67 293 39 146 79 294 88 329 l15 64 -34 28 c-19 16 -39 29 -45 28
-5 -1 -46 -21 -90 -46z"/>
<path d="M5880 9523 c-265 -26 -489 -71 -665 -133 -389 -137 -697 -331 -981
-614 -183 -184 -271 -294 -408 -514 -44 -70 -141 -270 -179 -367 -127 -326
-181 -613 -180 -960 0 -356 60 -663 191 -980 270 -654 797 -1172 1453 -1431
141 -55 343 -110 518 -141 144 -25 176 -27 426 -27 237 0 286 2 405 23 562 97
1058 351 1434 736 413 423 659 932 732 1515 20 167 15 548 -10 703 -93 569
-353 1071 -759 1464 -369 357 -821 592 -1324 688 -179 34 -503 53 -653 38z
m494 -89 c896 -110 1679 -715 2016 -1558 122 -305 180 -610 180 -940 -1 -188
-12 -314 -46 -481 -132 -666 -515 -1238 -1081 -1615 -311 -207 -653 -337
-1043 -396 -139 -22 -505 -25 -650 -6 -574 76 -1062 315 -1471 722 -383 381
-620 840 -710 1373 -30 178 -37 497 -15 687 67 578 312 1088 721 1495 557 557
1312 815 2099 719z"/>
<path d="M6365 8449 c-187 -13 -354 -76 -538 -202 -94 -64 -259 -215 -317
-291 l-35 -45 -790 -3 -790 -3 -3 -937 -2 -938 367 -2 368 -3 3 -317 2 -318
511 0 c542 0 576 2 724 52 195 65 405 198 569 362 61 61 128 130 147 154 l36
42 767 0 766 0 -2 933 -3 932 -390 5 -390 5 -3 288 c-2 219 -5 287 -15 287 -6
0 -210 1 -452 3 -242 1 -480 -1 -530 -4z m785 -499 l0 -290 390 0 390 0 0
-725 0 -725 -718 0 -718 0 -53 -75 c-158 -226 -429 -428 -683 -506 -70 -22
-91 -23 -495 -27 l-423 -3 0 320 0 321 -366 2 -365 3 0 720 1 720 736 5 c688
5 736 6 745 23 25 44 138 173 212 242 140 131 300 223 458 264 67 18 111 20
482 20 l407 1 0 -290z"/>
<path d="M6503 8140 c-182 -27 -342 -120 -440 -257 -51 -72 -55 -82 -213 -543
-168 -489 -249 -710 -286 -782 -31 -59 -112 -134 -177 -164 -55 -25 -76 -28
-189 -32 l-128 -4 0 -319 0 -319 228 0 c262 0 329 11 455 77 86 44 227 180
270 260 38 72 101 240 352 953 14 41 48 142 75 223 56 169 82 210 174 269 57
37 62 38 145 38 47 0 110 3 139 6 l52 7 0 298 0 299 -202 -1 c-112 -1 -226 -5
-255 -9z"/>
<path d="M4247 7573 c-4 -3 -7 -276 -7 -605 l0 -599 353 3 353 3 58 35 c109
65 167 171 168 304 0 92 -19 157 -59 198 l-26 27 25 33 c14 18 35 61 48 95 29
81 26 221 -7 295 -43 96 -167 184 -292 208 -59 11 -604 14 -614 3z m583 -363
c25 -25 25 -41 1 -71 -18 -23 -25 -24 -133 -24 l-113 0 -2 45 c-4 71 -6 70
117 70 97 0 112 -2 130 -20z m0 -420 c26 -26 25 -54 -2 -80 -20 -19 -33 -20
-133 -18 l-110 3 -3 44 c-5 71 -6 71 118 71 97 0 112 -2 130 -20z"/>
<path d="M6986 7514 c-8 -29 -6 -255 1 -284 5 -17 17 -20 107 -22 l101 -3 3
-277 2 -278 -105 0 c-126 0 -117 14 -113 -190 l3 -144 28 1 c15 1 212 1 437 2
l410 1 -2 163 -3 162 -105 5 -105 5 0 275 0 275 108 3 107 3 -2 162 -3 162
-431 3 -432 2 -6 -26z"/>
<path d="M3669 9452 c-19 -20 -48 -52 -64 -70 l-30 -34 29 -24 c22 -20 31 -22
42 -13 11 9 19 8 36 -7 90 -77 128 -115 123 -123 -2 -5 -35 -11 -72 -15 -98
-9 -314 -36 -339 -41 -24 -5 -124 -103 -124 -121 0 -21 37 -45 61 -39 20 5 55
-22 224 -174 163 -147 200 -185 197 -204 -1 -14 7 -32 22 -46 l23 -22 66 73
66 73 -22 23 c-15 16 -28 21 -47 17 -22 -5 -43 10 -140 96 -171 152 -212 190
-206 197 6 6 374 51 421 52 43 0 139 -84 131 -115 -4 -15 2 -29 19 -45 l25
-23 59 64 c33 35 60 69 61 75 0 20 -38 46 -57 40 -15 -5 -67 37 -221 176 -162
146 -202 186 -202 207 0 15 -10 33 -24 43 -23 16 -24 16 -57 -20z"/>
<path d="M8672 9164 c-14 -10 -22 -24 -20 -37 2 -18 -36 -49 -221 -178 -187
-131 -227 -155 -242 -146 -13 8 -23 7 -43 -6 -14 -10 -26 -21 -26 -26 0 -12
99 -151 108 -151 20 0 52 34 52 54 0 24 17 37 243 196 65 45 120 81 121 79 4
-4 -42 -451 -46 -454 -2 -1 -30 -21 -62 -45 -50 -36 -62 -41 -78 -31 -15 9
-23 8 -43 -6 -13 -10 -25 -22 -25 -26 0 -12 94 -146 103 -147 4 0 19 7 33 16
17 11 23 22 19 35 -7 20 -16 12 210 169 75 52 157 110 181 128 34 25 51 32 72
28 18 -4 35 0 51 12 l23 19 -52 74 c-29 41 -54 75 -55 77 -10 11 -54 -34 -57
-56 -2 -21 -21 -39 -81 -80 -43 -30 -80 -52 -82 -50 -2 2 7 100 19 218 16 150
20 221 13 234 -16 33 -78 116 -86 116 -3 0 -17 -7 -29 -16z"/>
<path d="M3071 8686 c-28 -46 -51 -88 -51 -92 0 -18 42 -35 69 -29 23 5 56
-11 187 -89 296 -177 303 -182 297 -204 -4 -15 3 -25 26 -37 31 -16 31 -16 51
17 10 18 35 58 54 88 l36 55 -27 22 c-18 15 -31 19 -37 13 -6 -6 -16 -10 -24
-10 -8 0 -117 62 -243 137 -190 114 -229 142 -229 160 0 15 -10 28 -29 38
l-30 15 -50 -84z"/>
<path d="M2913 8249 c-49 -24 -85 -68 -112 -136 -37 -94 -111 -312 -111 -327
0 -18 62 -34 68 -17 7 22 25 17 450 -129 81 -28 93 -35 90 -53 -2 -16 4 -23
30 -31 18 -5 35 -7 37 -4 3 3 33 85 66 184 52 152 62 190 63 254 1 66 -3 81
-28 123 -53 91 -174 123 -271 71 -46 -24 -49 -24 -59 -7 -18 34 -67 72 -104
83 -53 14 -72 13 -119 -11z m111 -140 c16 -13 26 -30 26 -47 0 -27 -47 -180
-59 -194 -8 -9 -134 36 -138 49 -6 17 56 165 78 190 28 29 58 29 93 2z m326
-65 c34 -33 33 -94 -4 -204 -15 -47 -29 -86 -31 -88 -2 -3 -208 68 -214 74 -2
2 9 39 24 83 29 82 72 146 109 162 32 13 88 0 116 -27z"/>
<path d="M8560 8169 c-13 -6 -26 -12 -28 -13 -4 -5 48 -158 57 -168 11 -12 71
15 71 32 0 13 15 14 94 12 63 -2 98 -8 106 -16 6 -8 24 -53 40 -102 l30 -88
-72 -73 c-53 -53 -75 -70 -87 -64 -16 10 -71 -6 -71 -20 0 -9 51 -170 57 -178
1 -2 18 0 38 3 27 5 35 12 35 29 0 15 33 52 103 116 137 126 333 309 374 347
l33 32 -16 45 -15 44 -72 6 c-40 4 -191 14 -337 23 -184 11 -272 20 -287 30
-12 8 -24 14 -25 13 -2 0 -14 -5 -28 -10z"/>
<path d="M2956 6960 l-49 -82 -36 6 c-20 4 -62 13 -93 20 -32 8 -58 10 -58 6
0 -5 27 -39 60 -76 l59 -68 -21 -35 c-12 -20 -34 -56 -49 -81 -15 -24 -26 -46
-24 -49 4 -3 69 22 143 57 l34 15 41 -49 c23 -26 52 -60 64 -74 12 -14 23 -23
26 -20 2 3 0 45 -5 94 -5 48 -6 92 -1 96 4 4 43 22 86 40 42 17 77 35 77 39 0
5 -37 16 -82 26 -46 9 -89 22 -95 27 -8 6 -13 37 -14 77 -2 122 -8 125 -63 31z"/>
<path d="M9116 7024 c-3 -9 -7 -39 -7 -67 -1 -29 -4 -65 -8 -82 -6 -31 -1 -29
-191 -75 -3 0 36 -18 85 -39 102 -43 95 -30 82 -171 l-7 -75 43 50 c23 27 53
62 67 78 l25 28 85 -35 c46 -20 86 -36 87 -36 11 0 -3 29 -42 90 -25 39 -45
73 -45 76 0 3 27 36 60 72 59 65 73 89 48 79 -7 -2 -48 -13 -91 -23 l-79 -18
-19 24 c-10 14 -32 51 -49 83 -17 31 -33 57 -35 57 -1 0 -6 -7 -9 -16z"/>
<path d="M3408 5949 c-10 -5 -18 -18 -18 -28 0 -11 -6 -21 -12 -24 -7 -3 -121
-48 -252 -102 -203 -81 -243 -95 -261 -85 -15 8 -29 8 -48 1 -15 -6 -27 -12
-27 -14 0 -16 79 -188 86 -187 39 4 54 14 54 35 0 20 28 33 254 124 221 89
257 101 274 90 24 -15 72 1 72 23 -1 7 -16 49 -34 93 -35 82 -51 96 -88 74z"/>
<path d="M9273 5769 c-9 -9 -108 -10 -358 -7 l-347 5 -21 -43 -20 -42 28 -34
c31 -37 151 -171 236 -262 135 -147 199 -222 199 -237 0 -15 56 -47 64 -38 13
14 73 156 69 162 -10 17 -55 28 -68 17 -10 -8 -29 8 -79 63 -36 41 -66 77 -66
80 0 3 19 47 41 97 l42 90 109 0 c61 0 107 -4 104 -9 -7 -11 11 -26 41 -35 19
-6 26 2 62 80 23 48 41 88 41 90 0 4 -56 34 -63 34 -1 0 -8 -5 -14 -11z"/>
<path d="M3535 5644 c-11 -8 -20 -24 -20 -37 0 -25 -29 -45 -432 -304 -17 -11
-25 -12 -40 -2 -16 9 -25 8 -46 -6 l-27 -17 22 -37 c47 -77 79 -121 91 -121
23 1 47 27 47 51 0 20 31 43 186 143 102 65 187 117 189 115 2 -2 -11 -104
-29 -227 l-32 -223 -64 -41 c-53 -33 -67 -38 -82 -29 -14 9 -24 8 -43 -5 -14
-9 -25 -19 -25 -23 0 -16 93 -151 104 -151 24 0 57 31 51 50 -4 14 25 37 147
116 84 54 189 122 233 151 51 34 83 49 89 43 14 -14 28 -12 55 9 l23 18 -48
74 c-27 41 -50 76 -52 79 -8 11 -57 -31 -55 -48 1 -11 -5 -26 -15 -34 -25 -22
-153 -100 -157 -96 -3 3 23 212 46 355 l12 82 -43 65 c-23 36 -47 66 -54 66
-6 0 -20 -7 -31 -16z"/>
<path d="M8343 5359 c-32 -39 -66 -81 -76 -92 -18 -21 -18 -22 7 -43 13 -12
29 -23 35 -25 9 -4 18 -255 9 -261 -2 -2 -31 19 -66 46 -42 34 -62 56 -62 71
0 20 -27 55 -43 55 -3 0 -34 -34 -68 -76 l-62 -76 26 -26 c21 -20 29 -23 40
-14 21 18 443 -324 440 -356 -2 -13 8 -28 25 -41 l28 -20 63 80 63 79 -24 20
c-13 11 -32 18 -43 15 -14 -3 -47 17 -108 67 l-87 70 0 59 c0 32 3 60 8 62 6
3 181 -24 306 -47 20 -4 36 -13 36 -20 0 -15 32 -46 48 -46 12 0 132 143 132
158 0 23 -35 36 -103 37 -59 2 -297 37 -409 61 l-28 6 0 123 c0 94 3 125 14
135 18 14 11 34 -19 54 -23 15 -25 14 -82 -55z"/>
<path d="M3996 5001 c-11 -12 -15 -27 -11 -42 4 -20 -13 -46 -91 -139 -230
-273 -256 -301 -274 -295 -12 4 -25 -3 -39 -23 l-20 -29 74 -61 c40 -34 76
-62 80 -62 16 0 43 46 39 65 -3 11 3 29 13 40 10 11 47 55 82 97 l64 77 28
-22 c137 -110 139 -112 134 -134 -4 -16 3 -27 24 -42 l29 -21 56 67 56 67 -22
24 c-16 16 -29 21 -45 17 -16 -4 -38 9 -90 52 -37 32 -74 63 -80 69 -10 10 -3
24 33 68 l45 56 115 -96 c127 -107 141 -124 122 -153 -10 -17 -8 -23 13 -40
13 -11 27 -20 31 -21 8 0 103 117 103 129 0 5 -19 24 -41 43 -23 18 -120 99
-216 181 -97 81 -180 147 -185 147 -6 0 -18 -8 -27 -19z"/>
<path d="M7825 4808 c-38 -32 -74 -63 -79 -68 -14 -14 32 -60 57 -57 16 1 64
-49 194 -203 145 -171 173 -209 168 -229 -6 -23 17 -61 37 -61 12 0 158 120
158 129 -1 3 -9 16 -20 29 -13 16 -26 22 -39 17 -16 -5 -51 31 -195 202 -150
177 -175 212 -171 233 4 19 -1 32 -17 47 l-23 21 -70 -60z"/>
<path d="M7600 4626 c-30 -18 -91 -52 -135 -76 -44 -23 -125 -68 -180 -99 -55
-31 -112 -63 -127 -70 -16 -8 -28 -19 -28 -24 0 -5 16 -38 36 -73 l36 -64 29
15 c22 12 29 23 29 44 0 25 8 33 64 62 36 19 67 31 69 29 2 -3 30 -52 62 -110
32 -58 73 -130 91 -162 19 -31 34 -59 34 -62 0 -3 14 -29 31 -57 26 -46 29
-55 18 -75 -10 -19 -9 -28 5 -49 l17 -26 82 45 c45 25 86 51 91 59 14 21 -18
67 -41 61 -12 -3 -24 4 -34 23 -55 94 -229 415 -229 423 0 5 28 25 62 44 58
32 64 34 80 19 15 -13 22 -14 48 -3 16 7 30 17 30 22 0 14 -71 138 -78 138 -4
-1 -32 -16 -62 -34z"/>
<path d="M4560 4501 c-84 -27 -152 -78 -195 -146 -84 -131 -97 -266 -36 -389
38 -77 90 -126 181 -170 58 -28 75 -31 155 -31 82 0 97 3 157 33 80 39 128 91
174 187 43 89 51 160 30 244 -31 120 -93 193 -212 248 -47 21 -77 27 -144 30
-47 1 -96 -1 -110 -6z m176 -116 c60 -18 116 -62 139 -111 54 -114 -20 -315
-138 -375 -82 -42 -194 -16 -260 62 -20 23 -40 58 -43 76 -24 128 70 308 182
348 50 18 60 18 120 0z"/>
<path d="M6884 4294 l-41 -15 -16 -197 c-10 -108 -22 -262 -28 -342 -7 -91
-16 -150 -24 -159 -16 -16 0 -71 20 -71 14 0 154 46 161 53 9 9 -19 67 -32 67
-15 0 -18 78 -6 159 l7 44 99 34 100 33 67 -73 c56 -60 66 -76 62 -98 -3 -15
0 -36 6 -47 11 -20 12 -20 106 11 52 17 95 35 95 39 0 24 -22 58 -38 58 -12 0
-90 79 -208 212 -263 294 -276 308 -283 307 -3 0 -24 -7 -47 -15z"/>
<path d="M5196 4264 c-9 -24 -7 -54 4 -54 18 0 10 -50 -43 -299 -46 -211 -56
-245 -74 -252 -13 -5 -22 -19 -26 -41 -2 -18 -4 -34 -3 -35 4 -5 192 -39 199
-36 11 7 8 71 -4 75 -8 3 -4 36 11 111 19 88 27 107 41 107 19 0 43 -39 78
-127 10 -27 38 -87 61 -135 l43 -87 56 -11 c31 -6 63 -13 72 -16 11 -3 19 3
23 18 10 38 7 58 -9 58 -13 0 -135 224 -135 248 0 5 26 16 58 25 92 25 145 87
158 184 11 88 -27 152 -117 199 -30 15 -332 84 -369 84 -10 0 -21 -7 -24 -16z
m265 -145 c88 -19 130 -63 116 -121 -17 -65 -74 -84 -189 -62 -39 7 -73 15
-75 18 -2 2 4 45 14 96 l17 91 36 -6 c19 -4 55 -11 81 -16z"/>
<path d="M6361 4181 c-24 -6 -35 -37 -107 -278 -8 -29 -18 -53 -22 -53 -4 0
-41 70 -82 155 l-75 154 -67 1 c-36 0 -73 -3 -82 -6 -21 -8 -21 -60 0 -72 15
-8 14 -33 -14 -287 -24 -220 -34 -280 -46 -287 -17 -9 -20 -35 -10 -62 7 -17
66 -21 139 -8 37 7 40 9 36 37 -1 17 -8 33 -14 37 -15 9 17 398 32 398 4 0 40
-67 81 -150 72 -146 75 -150 106 -150 17 0 36 6 41 13 5 6 29 77 53 157 24 80
46 149 48 154 7 13 15 -10 62 -198 34 -134 41 -173 32 -187 -7 -10 -9 -32 -5
-50 l6 -32 60 7 c33 3 75 6 93 6 32 0 34 2 34 35 0 21 -6 37 -17 43 -19 11
-28 38 -84 257 -22 88 -49 189 -60 225 -18 60 -19 66 -3 77 12 8 14 20 9 42
-6 30 -8 31 -63 30 -31 -1 -68 -4 -81 -8z"/>
<path d="M6130 2070 l0 -120 54 0 c112 0 164 51 153 149 -8 70 -39 91 -133 91
l-74 0 0 -120z"/>
<path d="M9071 2100 c-38 -197 -71 -378 -71 -387 0 -9 22 -13 75 -13 54 0 75
4 75 13 -1 15 -78 394 -79 387z"/>
<path d="M3587 3 c1355 -2 3571 -2 4925 0 1355 1 247 2 -2462 2 -2709 0 -3817
-1 -2463 -2z"/>
</g>
</svg>
